<svg t="1669014767555" class="icon" viewBox="0 0 1024 1024" version="1.1" xmlns="http://www.w3.org/2000/svg" p-id="1382" width="40" height="40"><path d="M512 128c11.616 0 23.376 0.544 35.136 1.632l66.368 69.632 19.552 20.512 28.32-0.688 96.176-2.304a386.56 386.56 0 0 1 49.68 49.68l-2.304 96.176-0.688 28.32 20.512 19.552 69.632 66.368a382 382 0 0 1-0.016 70.256l-69.632 66.368-20.512 19.552 0.688 28.32 2.304 96.176a386.56 386.56 0 0 1-49.68 49.68l-96.176-2.304-28.32-0.688-19.552 20.512-66.368 69.648a382 382 0 0 1-70.256-0.032l-66.368-69.648-19.552-20.512-28.32 0.688-96.176 2.304a386.56 386.56 0 0 1-49.68-49.68l2.304-96.176 0.688-28.32-20.512-19.552-69.632-66.368a382 382 0 0 1 0.016-70.24l69.632-66.368 20.512-19.552-0.688-28.32-2.304-96.176a386.56 386.56 0 0 1 49.68-49.68l96.176 2.304 28.32 0.688 19.552-20.512 66.368-69.632A387.056 387.056 0 0 1 512 128m0 576c105.872 0 192-86.128 192-192s-86.128-192-192-192-192 86.128-192 192 86.128 192 192 192m0-640c-22.288 0-44.176 1.68-65.6 4.832l-82.224 86.288-119.152-2.864a450.768 450.768 0 0 0-92.768 92.768l2.864 119.152L68.832 446.4A450.304 450.304 0 0 0 64 512c0 22.288 1.68 44.176 4.832 65.6l86.288 82.224-2.864 119.152a450.384 450.384 0 0 0 92.768 92.768l119.152-2.864 82.24 86.288c21.408 3.152 43.296 4.832 65.584 4.832s44.176-1.68 65.6-4.832l82.24-86.288 119.152 2.864a450.768 450.768 0 0 0 92.768-92.768l-2.864-119.152 86.288-82.224a450.304 450.304 0 0 0-0.016-131.2l-86.288-82.224 2.864-119.152a450.768 450.768 0 0 0-92.768-92.768l-119.152 2.864L577.6 68.832A450.304 450.304 0 0 0 512 64z m0 576a128 128 0 1 1 0-256 128 128 0 0 1 0 256z" p-id="1383" fill="#ffffff"></path></svg>