<?xml version="1.0" standalone="no"?>
<!DOCTYPE svg PUBLIC "-//W3C//DTD SVG 1.1//EN" "http://www.w3.org/Graphics/SVG/1.1/DTD/svg11.dtd">
<svg t="1671073729040" class="icon" viewBox="0 0 1024 1024" version="1.1" xmlns="http://www.w3.org/2000/svg" p-id="4972" xmlns:xlink="http://www.w3.org/1999/xlink" width="128" height="128">
<path d="M967.111111 281.6V910.222222c0 62.862222-50.915556 113.777778-113.777778 113.777778H170.666667c-62.862222 0-113.777778-50.915556-113.777778-113.777778V113.777778c0-62.862222 50.915556-113.777778 113.777778-113.777778h514.844444L967.111111 281.6z" fill="#BABABA" p-id="4973"></path>
<path d="M685.511111 167.822222V0L967.111111 281.6H799.288889c-62.862222 0-113.777778-50.915556-113.777778-113.777778" fill="#979797" p-id="4974"></path>
<g transform="scale(2) translate(155,150)" filter="invert(1)"><path d="M52,17 l100 0 l50 86.602540378443 l-50 86.602540378443 l-100 0 l-50 -86.602540378443 Z" stroke="black" stroke-width="2" fill="none"/>
<circle cx="102" cy="17" r="16.6667" stroke="black" stroke-width="0" fill="black"/>
<circle cx="177" cy="60.301270189221932338186158537647" r="16.6667" stroke="black" stroke-width="0" fill="black"/><path d="M52 17 l150 86.602540378443 l-16.667 28.867513459481 l-150 -86.602540378443 Z"/>
<path d="M2 103.602540378443 l150 86.602540378443 l16.667 -28.867513459481 l-150 -86.602540378443 Z"/></g>
</svg>